<?xml version="1.0" encoding="utf-8"?>
<!-- Generator: Adobe Illustrator 25.2.1, SVG Export Plug-In . SVG Version: 6.00 Build 0)  -->
<svg version="1.1" id="Calque_1" xmlns="http://www.w3.org/2000/svg" xmlns:xlink="http://www.w3.org/1999/xlink" x="0px" y="0px"
	 viewBox="0 0 3543 3543" style="enable-background:new 0 0 3543 3543;" xml:space="preserve">
<style type="text/css">
	.st0{fill:#FFFFFF;}
	.st1{font-family:'NiagaraEngraved-Reg';}
	.st2{font-size:232.4185px;}
	.st3{fill:url(#SVGID_1_);}
	.st4{fill:url(#SVGID_2_);}
	.st5{fill:url(#SVGID_3_);}
	.st6{fill:url(#SVGID_4_);}
	.st7{fill:url(#SVGID_5_);}
	.st8{fill:url(#SVGID_6_);}
	.st9{fill:url(#SVGID_7_);}
	.st10{fill:url(#SVGID_8_);}
	.st11{fill:url(#SVGID_9_);}
	.st12{fill:url(#SVGID_10_);}
	.st13{fill:url(#SVGID_11_);}
	.st14{fill:url(#SVGID_12_);}
	.st15{fill:url(#SVGID_13_);}
	.st16{fill:url(#SVGID_14_);}
	.st17{fill:url(#SVGID_15_);}
	.st18{fill:url(#SVGID_16_);}
	.st19{fill:url(#SVGID_17_);}
	.st20{fill:url(#SVGID_18_);}
	.st21{fill:url(#SVGID_19_);}
	.st22{fill:url(#SVGID_20_);}
	.st23{fill:url(#SVGID_21_);}
	.st24{fill:url(#SVGID_22_);}
	.st25{fill:url(#SVGID_23_);}
	.st26{fill:url(#SVGID_24_);}
	.st27{fill:url(#SVGID_25_);}
	.st28{fill:url(#SVGID_26_);}
	.st29{fill:url(#SVGID_27_);}
	.st30{fill:#F7C96A;}
	.st31{fill:#05050B;}
	.st32{fill:url(#SVGID_28_);}
	.st33{fill:url(#SVGID_29_);}
	.st34{fill:url(#SVGID_30_);}
	.st35{fill:url(#SVGID_31_);}
	.st36{fill:url(#SVGID_32_);}
	.st37{fill:url(#SVGID_33_);}
	.st38{fill:url(#SVGID_34_);}
	.st39{fill:url(#SVGID_35_);}
	.st40{fill:url(#SVGID_36_);}
	.st41{fill:url(#SVGID_37_);}
	.st42{fill:url(#SVGID_38_);}
	.st43{enable-background:new    ;}
	.st44{fill:#F3B666;}
	.st45{fill:url(#SVGID_39_);}
	.st46{fill:url(#SVGID_40_);}
	.st47{fill:url(#SVGID_41_);}
	.st48{fill:url(#SVGID_42_);}
	.st49{fill:url(#SVGID_43_);}
	.st50{fill:url(#SVGID_44_);}
	.st51{fill:url(#SVGID_45_);}
	.st52{fill:url(#SVGID_46_);}
	.st53{fill:url(#SVGID_47_);}
	.st54{fill:url(#SVGID_48_);}
	.st55{fill:url(#SVGID_49_);}
	.st56{fill:url(#SVGID_50_);}
	.st57{fill:url(#SVGID_51_);}
	.st58{fill:url(#SVGID_52_);}
	.st59{fill:url(#SVGID_53_);}
	.st60{fill:url(#SVGID_54_);}
	.st61{fill:url(#SVGID_55_);}
	.st62{fill:url(#SVGID_56_);}
	.st63{fill:url(#SVGID_57_);}
	.st64{fill:url(#SVGID_58_);}
	.st65{fill:url(#SVGID_59_);}
	.st66{fill:url(#SVGID_60_);}
	.st67{fill:url(#SVGID_61_);}
	.st68{fill:url(#SVGID_62_);}
	.st69{fill:url(#SVGID_63_);}
</style>
<rect x="44.1" y="1719.4" class="st0" width="1300" height="1357"/>
<rect x="1642.1" y="137.4" class="st0" width="1300" height="1357"/>
<rect x="44.1" y="130.4" class="st0" width="1300" height="1357"/>
<rect x="1643" y="1719.8" width="1309.3" height="1356.6"/>
<text transform="matrix(-2.102611e-03 2.0205 -1 -1.040444e-03 1734.8252 1126.1602)" class="st1 st2"> </text>
<g>
	<linearGradient id="SVGID_1_" gradientUnits="userSpaceOnUse" x1="-2026.911" y1="3547.9951" x2="2793.5723" y2="-1272.49">
		<stop  offset="0" style="stop-color:#EDDBAC"/>
		<stop  offset="0.5237" style="stop-color:#E0BC5D"/>
		<stop  offset="1" style="stop-color:#BC9557"/>
	</linearGradient>
	<path class="st3" d="M1201.8,1214.9V584.1c0-34.9-36.4-64.8-109.2-89.8c-72.8-25-160.7-37.5-263.8-37.5
		c-102.1,0-189.8,12.5-263.1,37.5c-31.9,10.9-56.8,22.6-74.8,35.4c-24.1-20.7-51-54.5-50.6-101.7c0.6-85.6-82.7-136.9-113.2-151.6
		c0,0,87,49.6,89.8,130.8c1.8,50.3,6.3,133,38.9,210.6v597.3c0,34.9,36.6,64.9,109.9,89.8c73.3,25,161,37.4,263.1,37.4
		c103.1,0,191-12.5,263.8-37.4C1165.4,1279.7,1201.8,1249.8,1201.8,1214.9z M462.7,558.8c-10.2-14.9-19.1-33-22.3-53.4
		c0,0,9.6,18.9,30.9,41.4C467.9,550.8,465,554.8,462.7,558.8z M621.1,1298.9c-68.7-19.1-103.1-44-103.1-74.9V575.6
		c0-31.2,34.4-56.2,103.1-74.9c-27.3,15.8-40.9,35.7-40.9,59.7v678.3C580.1,1263,593.8,1283.1,621.1,1298.9z M953.1,1269.7
		c0,13.8-12.1,25.6-36.4,35.3s-53.6,14.6-87.9,14.6c-34.4,0-63.7-4.9-87.9-14.6c-24.3-9.8-36.4-21.5-36.4-35.3V529.3
		c0-13.8,12.1-25.6,36.4-35.3c24.2-9.7,53.6-14.6,87.9-14.6c34.4,0,63.7,4.9,87.9,14.6c24.2,9.8,36.4,21.5,36.4,35.3V1269.7z
		 M1077.4,1235c0,33.3-37.4,59.5-112.2,78.5c33.3-15.4,50-35.7,50-60.9V546.9c0-25.6-16.7-46.1-50-61.5
		c74.8,19.1,112.2,45.3,112.2,78.5V1235z"/>
	<linearGradient id="SVGID_2_" gradientUnits="userSpaceOnUse" x1="200.369" y1="2199.8533" x2="1704.7972" y2="695.4245">
		<stop  offset="0" style="stop-color:#EDDBAC"/>
		<stop  offset="0.5237" style="stop-color:#E0BC5D"/>
		<stop  offset="1" style="stop-color:#BC9557"/>
	</linearGradient>
	<path class="st4" d="M940,1367.8c-35.1,11-43,34.3-41.7,33.8c23.7-9.4,109.5-23.7,109.5-23.7c154.2-26.2,215.2-95,215.2-95
		C1168.7,1332.3,975.1,1356.9,940,1367.8z"/>
	<linearGradient id="SVGID_3_" gradientUnits="userSpaceOnUse" x1="40.7747" y1="467.2174" x2="402.3154" y2="105.6765">
		<stop  offset="0" style="stop-color:#EDDBAC"/>
		<stop  offset="0.5237" style="stop-color:#E0BC5D"/>
		<stop  offset="1" style="stop-color:#BC9557"/>
	</linearGradient>
	<path class="st5" d="M306.8,311.7c68.3,28,82.2,46.8,84.1,50c-3-5.3-33.4-56.8-82.7-80.8c-76.3-37.2-176.4-90.5-199.7-126.1
		C108.5,154.8,122.8,236.4,306.8,311.7z"/>
	<linearGradient id="SVGID_4_" gradientUnits="userSpaceOnUse" x1="390.6772" y1="362.3448" x2="391.3895" y2="361.6324">
		<stop  offset="0" style="stop-color:#EDDBAC"/>
		<stop  offset="0.5237" style="stop-color:#E0BC5D"/>
		<stop  offset="1" style="stop-color:#BC9557"/>
	</linearGradient>
	<path class="st6" d="M391.2,362.2c0,0-0.1-0.2-0.3-0.5C391.1,362,391.2,362.2,391.2,362.2z"/>
	<linearGradient id="SVGID_5_" gradientUnits="userSpaceOnUse" x1="-42.2142" y1="608.9438" x2="477.5851" y2="89.1443">
		<stop  offset="0" style="stop-color:#EDDBAC"/>
		<stop  offset="0.5237" style="stop-color:#E0BC5D"/>
		<stop  offset="1" style="stop-color:#BC9557"/>
	</linearGradient>
	<path class="st7" d="M310.4,366.9c74.5,19.1,95.1,34.9,95.1,34.9s-3.3-23.8-20.2-34.4c-54.6-34.1-206.8-79.5-278.1-147.9
		C102.5,215.1,133.3,321.6,310.4,366.9z"/>
	<linearGradient id="SVGID_6_" gradientUnits="userSpaceOnUse" x1="-100.1369" y1="725.8593" x2="522.3419" y2="103.3802">
		<stop  offset="0" style="stop-color:#EDDBAC"/>
		<stop  offset="0.5237" style="stop-color:#E0BC5D"/>
		<stop  offset="1" style="stop-color:#BC9557"/>
	</linearGradient>
	<path class="st8" d="M306.7,426.9c46.6,2.2,82.6-2.1,99.4,15.5c0,0-1.1-23.5-27.2-35.2c-50.3-22.7-127,8.7-264.1-119.2
		C114.9,288,141.9,419.2,306.7,426.9z"/>
	<linearGradient id="SVGID_7_" gradientUnits="userSpaceOnUse" x1="-82.7235" y1="795.6007" x2="540.1899" y2="172.687">
		<stop  offset="0" style="stop-color:#EDDBAC"/>
		<stop  offset="0.5237" style="stop-color:#E0BC5D"/>
		<stop  offset="1" style="stop-color:#BC9557"/>
	</linearGradient>
	<path class="st9" d="M410.1,498.4c0,0-7.3-48-67.4-46.2c-87.9,2.6-169-22.9-207.4-70.3c0,0,35.5,91.1,167.6,97.2
		C334,480.6,382.9,481.1,410.1,498.4z"/>
	<linearGradient id="SVGID_8_" gradientUnits="userSpaceOnUse" x1="83.885" y1="765.1597" x2="518.6005" y2="330.444">
		<stop  offset="0" style="stop-color:#EDDBAC"/>
		<stop  offset="0.5237" style="stop-color:#E0BC5D"/>
		<stop  offset="1" style="stop-color:#BC9557"/>
	</linearGradient>
	<path class="st10" d="M419.7,554.8c1.4,1.3-5.9-34-39-44.4c-44.7-14.1-97.6-0.1-142.5-25.1c0,0,17.2,36.3,109.3,43.8
		C400.8,533.4,415.1,550.4,419.7,554.8z"/>
	<linearGradient id="SVGID_9_" gradientUnits="userSpaceOnUse" x1="181.5201" y1="752.157" x2="499.6314" y2="434.0456">
		<stop  offset="0" style="stop-color:#EDDBAC"/>
		<stop  offset="0.5237" style="stop-color:#E0BC5D"/>
		<stop  offset="1" style="stop-color:#BC9557"/>
	</linearGradient>
	<path class="st11" d="M369.9,552.1c-47.1-6.8-71.5-12.7-87.7-20.4c0,0,14.3,34.5,74.4,51.6c37.9,10.7,62.2,7.6,80.6,32.9
		C437.2,616.2,424.6,560,369.9,552.1z"/>
</g>
<g>
	<linearGradient id="SVGID_10_" gradientUnits="userSpaceOnUse" x1="-393.7737" y1="5167.54" x2="4426.7095" y2="347.0551">
		<stop  offset="0" style="stop-color:#EDDBAC"/>
		<stop  offset="0.5237" style="stop-color:#E0BC5D"/>
		<stop  offset="1" style="stop-color:#BC9557"/>
	</linearGradient>
	<path class="st12" d="M2834.9,2834.4v-630.8c0-34.9-36.4-64.8-109.2-89.8c-72.8-25-160.7-37.5-263.8-37.5
		c-102.1,0-189.8,12.5-263.1,37.5c-31.9,10.9-56.8,22.6-74.8,35.4c-24.1-20.7-51-54.5-50.6-101.7c0.6-85.6-82.7-136.9-113.2-151.6
		c0,0,87,49.6,89.8,130.8c1.8,50.3,6.3,133,38.9,210.6v597.3c0,34.9,36.6,64.9,109.9,89.8c73.3,25,161,37.4,263.1,37.4
		c103.1,0,191-12.5,263.8-37.4C2798.5,2899.3,2834.9,2869.4,2834.9,2834.4z M2095.8,2178.4c-10.2-14.9-19.1-33-22.3-53.4
		c0,0,9.6,18.9,30.9,41.4C2101,2170.3,2098.1,2174.3,2095.8,2178.4z M2254.2,2918.5c-68.7-19.1-103.1-44-103.1-74.9v-648.5
		c0-31.2,34.4-56.2,103.1-74.9c-27.3,15.8-40.9,35.7-40.9,59.7v678.3C2213.3,2882.5,2226.9,2902.6,2254.2,2918.5z M2586.2,2889.2
		c0,13.8-12.1,25.6-36.4,35.3s-53.6,14.6-87.9,14.6c-34.4,0-63.7-4.9-87.9-14.6c-24.3-9.8-36.4-21.5-36.4-35.3v-740.4
		c0-13.8,12.1-25.6,36.4-35.3c24.2-9.7,53.6-14.6,87.9-14.6c34.4,0,63.7,4.9,87.9,14.6c24.2,9.8,36.4,21.5,36.4,35.3V2889.2z
		 M2710.6,2854.5c0,33.3-37.4,59.5-112.2,78.5c33.3-15.4,50-35.7,50-60.9v-705.7c0-25.6-16.7-46.1-50-61.5
		c74.8,19.1,112.2,45.3,112.2,78.5V2854.5z"/>
	<linearGradient id="SVGID_11_" gradientUnits="userSpaceOnUse" x1="1833.5063" y1="3819.3984" x2="3337.9346" y2="2314.9697">
		<stop  offset="0" style="stop-color:#EDDBAC"/>
		<stop  offset="0.5237" style="stop-color:#E0BC5D"/>
		<stop  offset="1" style="stop-color:#BC9557"/>
	</linearGradient>
	<path class="st13" d="M2573.2,2987.4c-35.1,11-43,34.3-41.7,33.8c23.7-9.4,109.5-23.7,109.5-23.7c154.2-26.2,215.2-95,215.2-95
		C2801.9,2951.8,2608.2,2976.4,2573.2,2987.4z"/>
	<linearGradient id="SVGID_12_" gradientUnits="userSpaceOnUse" x1="1673.912" y1="2086.7625" x2="2035.4528" y2="1725.2216">
		<stop  offset="0" style="stop-color:#EDDBAC"/>
		<stop  offset="0.5237" style="stop-color:#E0BC5D"/>
		<stop  offset="1" style="stop-color:#BC9557"/>
	</linearGradient>
	<path class="st14" d="M1939.9,1931.3c68.3,28,82.2,46.8,84.1,50c-3-5.3-33.4-56.8-82.7-80.8c-76.3-37.2-176.4-90.5-199.7-126.1
		C1741.7,1774.3,1755.9,1856,1939.9,1931.3z"/>
	<linearGradient id="SVGID_13_" gradientUnits="userSpaceOnUse" x1="2023.8145" y1="1981.8899" x2="2024.5269" y2="1981.1775">
		<stop  offset="0" style="stop-color:#EDDBAC"/>
		<stop  offset="0.5237" style="stop-color:#E0BC5D"/>
		<stop  offset="1" style="stop-color:#BC9557"/>
	</linearGradient>
	<path class="st15" d="M2024.4,1981.7c0,0-0.1-0.2-0.3-0.5C2024.3,1981.5,2024.4,1981.7,2024.4,1981.7z"/>
	<linearGradient id="SVGID_14_" gradientUnits="userSpaceOnUse" x1="1590.9231" y1="2228.4888" x2="2110.7224" y2="1708.6893">
		<stop  offset="0" style="stop-color:#EDDBAC"/>
		<stop  offset="0.5237" style="stop-color:#E0BC5D"/>
		<stop  offset="1" style="stop-color:#BC9557"/>
	</linearGradient>
	<path class="st16" d="M1943.5,1986.5c74.5,19.1,95.1,34.9,95.1,34.9s-3.3-23.8-20.2-34.4c-54.6-34.1-206.8-79.5-278.1-147.9
		C1735.6,1834.7,1766.4,1941.1,1943.5,1986.5z"/>
	<linearGradient id="SVGID_15_" gradientUnits="userSpaceOnUse" x1="1533.0004" y1="2345.4043" x2="2155.4792" y2="1722.9253">
		<stop  offset="0" style="stop-color:#EDDBAC"/>
		<stop  offset="0.5237" style="stop-color:#E0BC5D"/>
		<stop  offset="1" style="stop-color:#BC9557"/>
	</linearGradient>
	<path class="st17" d="M1939.8,2046.5c46.6,2.2,82.6-2.1,99.4,15.5c0,0-1.1-23.5-27.2-35.2c-50.3-22.7-127,8.7-264.1-119.2
		C1748.1,1907.5,1775,2038.7,1939.8,2046.5z"/>
	<linearGradient id="SVGID_16_" gradientUnits="userSpaceOnUse" x1="1550.4138" y1="2415.1458" x2="2173.3271" y2="1792.2321">
		<stop  offset="0" style="stop-color:#EDDBAC"/>
		<stop  offset="0.5237" style="stop-color:#E0BC5D"/>
		<stop  offset="1" style="stop-color:#BC9557"/>
	</linearGradient>
	<path class="st18" d="M2043.2,2118c0,0-7.3-48-67.4-46.2c-87.9,2.6-169-22.9-207.4-70.3c0,0,35.5,91.1,167.6,97.2
		C1967.2,2100.2,2016,2100.7,2043.2,2118z"/>
	<linearGradient id="SVGID_17_" gradientUnits="userSpaceOnUse" x1="1717.0223" y1="2384.7048" x2="2151.7378" y2="1949.9891">
		<stop  offset="0" style="stop-color:#EDDBAC"/>
		<stop  offset="0.5237" style="stop-color:#E0BC5D"/>
		<stop  offset="1" style="stop-color:#BC9557"/>
	</linearGradient>
	<path class="st19" d="M2052.8,2174.3c1.4,1.3-5.9-34-39-44.4c-44.7-14.1-97.6-0.1-142.5-25.1c0,0,17.2,36.3,109.3,43.8
		C2033.9,2152.9,2048.2,2169.9,2052.8,2174.3z"/>
	<linearGradient id="SVGID_18_" gradientUnits="userSpaceOnUse" x1="1814.6573" y1="2371.7021" x2="2132.7688" y2="2053.5906">
		<stop  offset="0" style="stop-color:#EDDBAC"/>
		<stop  offset="0.5237" style="stop-color:#E0BC5D"/>
		<stop  offset="1" style="stop-color:#BC9557"/>
	</linearGradient>
	<path class="st20" d="M2003,2171.7c-47.1-6.8-71.5-12.7-87.7-20.4c0,0,14.3,34.5,74.4,51.6c37.9,10.7,62.2,7.6,80.6,32.9
		C2070.4,2235.8,2057.8,2179.5,2003,2171.7z"/>
</g>
<g>
	<linearGradient id="SVGID_19_" gradientUnits="userSpaceOnUse" x1="1594.6208" y1="143.2552" x2="3040.8818" y2="1470.5596">
		<stop  offset="0" style="stop-color:#EDDBAC"/>
		<stop  offset="0.5237" style="stop-color:#E0BC5D"/>
		<stop  offset="1" style="stop-color:#BC9557"/>
	</linearGradient>
	<path class="st21" d="M2791.6,1214.9V584.1c0-34.9-36.4-64.8-109.2-89.8c-72.8-25-160.7-37.5-263.8-37.5
		c-102.1,0-189.8,12.5-263.1,37.5c-31.9,10.9-56.8,22.6-74.8,35.4c-24.1-20.7-51-54.5-50.6-101.7c0.6-85.6-82.7-136.9-113.2-151.6
		c0,0,87,49.6,89.8,130.8c1.8,50.3,6.3,133,38.9,210.6v597.3c0,34.9,36.6,64.9,109.9,89.8c73.3,25,161,37.4,263.1,37.4
		c103.1,0,191-12.5,263.8-37.4C2755.2,1279.8,2791.6,1249.8,2791.6,1214.9z M2052.5,558.9c-10.2-14.9-19.1-33-22.3-53.4
		c0,0,9.6,18.9,30.9,41.4C2057.7,550.8,2054.8,554.8,2052.5,558.9z M2210.9,1299c-68.7-19.1-103.1-44-103.1-74.9V575.6
		c0-31.2,34.4-56.2,103.1-74.9c-27.3,15.8-40.9,35.7-40.9,59.7v678.3C2170,1263,2183.6,1283.1,2210.9,1299z M2542.9,1269.7
		c0,13.8-12.1,25.6-36.4,35.3s-53.6,14.6-87.9,14.6c-34.4,0-63.7-4.9-87.9-14.6c-24.3-9.8-36.4-21.5-36.4-35.3V529.3
		c0-13.8,12.1-25.6,36.4-35.3c24.2-9.7,53.6-14.6,87.9-14.6c34.4,0,63.7,4.9,87.9,14.6c24.2,9.8,36.4,21.5,36.4,35.3V1269.7z
		 M2667.2,1235c0,33.3-37.4,59.5-112.2,78.5c33.3-15.4,50-35.7,50-60.9V547c0-25.6-16.7-46.1-50-61.5
		c74.8,19.1,112.2,45.3,112.2,78.5V1235z"/>
	<linearGradient id="SVGID_20_" gradientUnits="userSpaceOnUse" x1="1480.0012" y1="268.1474" x2="2926.2622" y2="1595.4518">
		<stop  offset="0" style="stop-color:#EDDBAC"/>
		<stop  offset="0.5237" style="stop-color:#E0BC5D"/>
		<stop  offset="1" style="stop-color:#BC9557"/>
	</linearGradient>
	<path class="st22" d="M2529.8,1367.9c-35.1,11-43,34.3-41.7,33.8c23.7-9.4,109.5-23.7,109.5-23.7c154.2-26.2,215.2-95,215.2-95
		C2758.5,1332.3,2564.9,1356.9,2529.8,1367.9z"/>
	<linearGradient id="SVGID_21_" gradientUnits="userSpaceOnUse" x1="1646.6766" y1="86.5341" x2="3092.9375" y2="1413.8384">
		<stop  offset="0" style="stop-color:#EDDBAC"/>
		<stop  offset="0.5237" style="stop-color:#E0BC5D"/>
		<stop  offset="1" style="stop-color:#BC9557"/>
	</linearGradient>
	<path class="st23" d="M1896.6,311.7c68.3,28,82.2,46.8,84.1,50c-3-5.3-33.4-56.8-82.7-80.8c-76.3-37.2-176.4-90.5-199.7-126.1
		C1698.3,154.8,1712.6,236.5,1896.6,311.7z"/>
	<linearGradient id="SVGID_22_" gradientUnits="userSpaceOnUse" x1="1662.2645" y1="69.5491" x2="3108.5254" y2="1396.8535">
		<stop  offset="0" style="stop-color:#EDDBAC"/>
		<stop  offset="0.5237" style="stop-color:#E0BC5D"/>
		<stop  offset="1" style="stop-color:#BC9557"/>
	</linearGradient>
	<path class="st24" d="M1981,362.2c0,0-0.1-0.2-0.3-0.5C1980.9,362,1981,362.2,1981,362.2z"/>
	<linearGradient id="SVGID_23_" gradientUnits="userSpaceOnUse" x1="1623.9685" y1="111.2774" x2="3070.2295" y2="1438.5817">
		<stop  offset="0" style="stop-color:#EDDBAC"/>
		<stop  offset="0.5237" style="stop-color:#E0BC5D"/>
		<stop  offset="1" style="stop-color:#BC9557"/>
	</linearGradient>
	<path class="st25" d="M1900.2,367c74.5,19.1,95.1,34.9,95.1,34.9s-3.3-23.8-20.2-34.4c-54.6-34.1-206.8-79.5-278.1-147.9
		C1692.3,215.2,1723.1,321.6,1900.2,367z"/>
	<linearGradient id="SVGID_24_" gradientUnits="userSpaceOnUse" x1="1594.9458" y1="142.9012" x2="3041.2068" y2="1470.2054">
		<stop  offset="0" style="stop-color:#EDDBAC"/>
		<stop  offset="0.5237" style="stop-color:#E0BC5D"/>
		<stop  offset="1" style="stop-color:#BC9557"/>
	</linearGradient>
	<path class="st26" d="M1896.5,427c46.6,2.2,82.6-2.1,99.4,15.5c0,0-1.1-23.5-27.2-35.2c-50.3-22.7-127,8.7-264.1-119.2
		C1704.7,288,1731.7,419.2,1896.5,427z"/>
	<linearGradient id="SVGID_25_" gradientUnits="userSpaceOnUse" x1="1569.0499" y1="171.1179" x2="3015.3108" y2="1498.4222">
		<stop  offset="0" style="stop-color:#EDDBAC"/>
		<stop  offset="0.5237" style="stop-color:#E0BC5D"/>
		<stop  offset="1" style="stop-color:#BC9557"/>
	</linearGradient>
	<path class="st27" d="M1999.9,498.5c0,0-7.3-48-67.4-46.2c-87.9,2.6-169-22.9-207.4-70.3c0,0,35.5,91.1,167.6,97.2
		C1923.9,480.7,1972.7,481.2,1999.9,498.5z"/>
	<linearGradient id="SVGID_26_" gradientUnits="userSpaceOnUse" x1="1558.3812" y1="182.7428" x2="3004.6421" y2="1510.0471">
		<stop  offset="0" style="stop-color:#EDDBAC"/>
		<stop  offset="0.5237" style="stop-color:#E0BC5D"/>
		<stop  offset="1" style="stop-color:#BC9557"/>
	</linearGradient>
	<path class="st28" d="M2009.5,554.8c1.4,1.3-5.9-34-39-44.4c-44.7-14.1-97.6-0.1-142.5-25.1c0,0,17.2,36.3,109.3,43.8
		C1990.6,533.4,2004.9,550.4,2009.5,554.8z"/>
	<linearGradient id="SVGID_27_" gradientUnits="userSpaceOnUse" x1="1545.9207" y1="196.3201" x2="2992.1814" y2="1523.6245">
		<stop  offset="0" style="stop-color:#EDDBAC"/>
		<stop  offset="0.5237" style="stop-color:#E0BC5D"/>
		<stop  offset="1" style="stop-color:#BC9557"/>
	</linearGradient>
	<path class="st29" d="M1959.7,552.2c-47.1-6.8-71.5-12.7-87.7-20.4c0,0,14.3,34.5,74.4,51.6c37.9,10.7,62.2,7.6,80.6,32.9
		C2027,616.3,2014.5,560,1959.7,552.2z"/>
</g>
<text transform="matrix(-2.102611e-03 2.0205 -1 -1.040444e-03 334.6426 2632.8269)" class="st30 st1 st2"> </text>
<g>
	<path class="st31" d="M1241,2834.7v-630.8c0-34.9-36.4-64.8-109.2-89.8c-72.8-25-160.7-37.5-263.8-37.5
		c-102.1,0-189.8,12.5-263.1,37.5c-31.9,10.9-56.8,22.6-74.8,35.4c-24.1-20.7-51-54.5-50.6-101.7c0.6-85.6-82.7-136.9-113.2-151.6
		c0,0,87,49.6,89.8,130.8c1.8,50.3,6.3,133,38.9,210.6v597.3c0,34.9,36.6,64.9,109.9,89.8c73.3,25,161,37.4,263.1,37.4
		c103.1,0,191-12.5,263.8-37.4C1204.6,2899.6,1241,2869.7,1241,2834.7z M501.9,2178.7c-10.2-14.9-19.1-33-22.3-53.4
		c0,0,9.6,18.9,30.9,41.4C507.1,2170.6,504.2,2174.6,501.9,2178.7z M660.3,2918.8c-68.7-19.1-103.1-44-103.1-74.9v-648.5
		c0-31.2,34.4-56.2,103.1-74.9c-27.3,15.8-40.9,35.7-40.9,59.7v678.3C619.4,2882.8,633,2902.9,660.3,2918.8z M992.4,2889.5
		c0,13.8-12.1,25.6-36.4,35.3s-53.6,14.6-87.9,14.6c-34.4,0-63.7-4.9-87.9-14.6c-24.3-9.8-36.4-21.5-36.4-35.3v-740.4
		c0-13.8,12.1-25.6,36.4-35.3c24.2-9.7,53.6-14.6,87.9-14.6c34.4,0,63.7,4.9,87.9,14.6c24.2,9.8,36.4,21.5,36.4,35.3V2889.5z
		 M1116.7,2854.8c0,33.3-37.4,59.5-112.2,78.5c33.3-15.4,50-35.7,50-60.9v-705.7c0-25.6-16.7-46.1-50-61.5
		c74.8,19.1,112.2,45.3,112.2,78.5V2854.8z"/>
	<path class="st31" d="M979.3,2987.7c-35.1,11-43,34.3-41.7,33.8c23.7-9.4,109.5-23.7,109.5-23.7c154.2-26.2,215.2-95,215.2-95
		C1208,2952.1,1014.3,2976.7,979.3,2987.7z"/>
	<path class="st31" d="M346.1,1931.6c68.3,28,82.2,46.8,84.1,50c-3-5.3-33.4-56.8-82.7-80.8c-76.3-37.2-176.4-90.5-199.7-126.1
		C147.8,1774.6,162.1,1856.3,346.1,1931.6z"/>
	<path class="st31" d="M430.5,1982c0,0-0.1-0.2-0.3-0.5C430.4,1981.8,430.5,1982,430.5,1982z"/>
	<path class="st31" d="M349.6,1986.8c74.5,19.1,95.1,34.9,95.1,34.9s-3.3-23.8-20.2-34.4c-54.6-34.1-206.8-79.5-278.1-147.9
		C141.8,1835,172.6,1941.4,349.6,1986.8z"/>
	<path class="st31" d="M346,2046.8c46.6,2.2,82.6-2.1,99.4,15.5c0,0-1.1-23.5-27.2-35.2c-50.3-22.7-127,8.7-264.1-119.2
		C154.2,1907.8,181.1,2039,346,2046.8z"/>
	<path class="st31" d="M449.3,2118.3c0,0-7.3-48-67.4-46.2c-87.9,2.6-169-22.9-207.4-70.3c0,0,35.5,91.1,167.6,97.2
		C373.3,2100.5,422.1,2101,449.3,2118.3z"/>
	<path class="st31" d="M458.9,2174.6c1.4,1.3-5.9-34-39-44.4c-44.7-14.1-97.6-0.1-142.5-25.1c0,0,17.2,36.3,109.3,43.8
		C440,2153.2,454.4,2170.2,458.9,2174.6z"/>
	<path class="st31" d="M409.1,2172c-47.1-6.8-71.5-12.7-87.7-20.4c0,0,14.3,34.5,74.4,51.6c37.9,10.7,62.2,7.6,80.6,32.9
		C476.5,2236.1,463.9,2179.8,409.1,2172z"/>
</g>
<linearGradient id="SVGID_28_" gradientUnits="userSpaceOnUse" x1="-3765.0073" y1="5272.9927" x2="-3325.5713" y2="4833.5566" gradientTransform="matrix(1 0 0 -1 0 5596.8213)">
	<stop  offset="0" style="stop-color:#EDDBAC"/>
	<stop  offset="0.5237" style="stop-color:#E0BC5D"/>
	<stop  offset="1" style="stop-color:#BC9557"/>
</linearGradient>
<path class="st32" d="M-3368.6,478.7c0,0-64.1,58-235.2,80.9c0,0-113.3,15.2-130.5,36.3c-1.8,2.1,20.1-47.4,98.8-58.4
	C-3556.8,526.5-3423.7,511.6-3368.6,478.7z"/>
<g>
	
		<linearGradient id="SVGID_29_" gradientUnits="userSpaceOnUse" x1="1550.1919" y1="5417.8828" x2="1943.4592" y2="5024.6157" gradientTransform="matrix(-0.8431 -0.1472 0.1336 -0.7655 -2190.7793 4806.6655)">
		<stop  offset="0" style="stop-color:#EDDBAC"/>
		<stop  offset="0.5237" style="stop-color:#E0BC5D"/>
		<stop  offset="1" style="stop-color:#BC9557"/>
	</linearGradient>
	<path class="st33" d="M-2962,367.7c-0.6-0.2-0.4-0.1-0.7-0.2c50.9,24.3,64.7,73.3,50.7,113.8c-10.8,31.2-47,92.4,4,140.1
		c13,11.9,29.2,24.2,49,28.2c20.5,5.8,39.7-1.1,46.1-14.6c6.3-14.7-5.1-32.4-25.7-39.5c-10.8-3.7-22.8-4-32.1-0.4
		c-4.3-2.9-4.2-2.6-7.9-6.1c-22.8-21.3-14.8-57.8-8.7-78.8c12.1-38.9,8.7-86.8-36.3-121.4C-2934.8,380.2-2947.9,372.7-2962,367.7z"
		/>
	
		<linearGradient id="SVGID_30_" gradientUnits="userSpaceOnUse" x1="1557.2427" y1="5485.8193" x2="2017.3069" y2="5025.7554" gradientTransform="matrix(-0.8431 -0.1472 0.1336 -0.7655 -2190.7793 4806.6655)">
		<stop  offset="0" style="stop-color:#EDDBAC"/>
		<stop  offset="0.5237" style="stop-color:#E0BC5D"/>
		<stop  offset="1" style="stop-color:#BC9557"/>
	</linearGradient>
	<path class="st34" d="M-3096.8,475.6L-3096.8,475.6L-3096.8,475.6c17.4,33.9,50.2,66.1,92.1,86.6c13.6,6.6,27.2,13.3,39.9,20.9
		c6.2,3.7,13.2,7.9,17.1,13.2c0.2,0.9,0.3,1.9,0.3,2.8c0.8-0.7,0.3-2-0.3-2.8c-3.7-22.8-20.7-45.3-47.1-60.3
		C-3028.9,517-3072.9,503.6-3096.8,475.6L-3096.8,475.6z"/>
	
		<linearGradient id="SVGID_31_" gradientUnits="userSpaceOnUse" x1="1625.5024" y1="5539.3784" x2="2079.7793" y2="5085.1016" gradientTransform="matrix(-0.8431 -0.1472 0.1336 -0.7655 -2190.7793 4806.6655)">
		<stop  offset="0" style="stop-color:#EDDBAC"/>
		<stop  offset="0.5237" style="stop-color:#E0BC5D"/>
		<stop  offset="1" style="stop-color:#BC9557"/>
	</linearGradient>
	<path class="st35" d="M-3126.7,382L-3126.7,382L-3126.7,382c3,37.7,25.4,79.6,70.5,104.9c67.4,36.7,96.6,51.2,104.3,61.8
		c0,0,18.4-34.1-57.6-72.3C-3055.2,452.6-3104.6,420.4-3126.7,382L-3126.7,382z"/>
	
		<linearGradient id="SVGID_32_" gradientUnits="userSpaceOnUse" x1="1664.6154" y1="5569.2036" x2="2119.8093" y2="5114.0098" gradientTransform="matrix(-0.8431 -0.1472 0.1336 -0.7655 -2190.7793 4806.6655)">
		<stop  offset="0" style="stop-color:#EDDBAC"/>
		<stop  offset="0.5237" style="stop-color:#E0BC5D"/>
		<stop  offset="1" style="stop-color:#BC9557"/>
	</linearGradient>
	<path class="st36" d="M-3130.9,321.4L-3130.9,321.4L-3130.9,321.4c-1.2,9.4,0.1,19.3,3,29c10.6,36.3,43.5,67.1,84.8,90.1
		c99.5,54.1,104.4,69.3,104.4,69.3s18.2-29.6-18.9-60c-26.7-21.9-70.7-44.7-92.8-56.1C-3082.7,376.4-3125.4,351.6-3130.9,321.4
		L-3130.9,321.4z"/>
	
		<linearGradient id="SVGID_33_" gradientUnits="userSpaceOnUse" x1="1704.4656" y1="5596.4214" x2="2157.6091" y2="5143.2783" gradientTransform="matrix(-0.8431 -0.1472 0.1336 -0.7655 -2190.7793 4806.6655)">
		<stop  offset="0" style="stop-color:#EDDBAC"/>
		<stop  offset="0.5237" style="stop-color:#E0BC5D"/>
		<stop  offset="1" style="stop-color:#BC9557"/>
	</linearGradient>
	<path class="st37" d="M-3119.8,268.2L-3119.8,268.2L-3119.8,268.2c-1.8,7.7-1.5,16,0.5,24.2c7.8,32.5,36.6,60.2,72,82
		c0,0,114.2,56.6,117.5,84c0.7,5.6,25-58.1-73.4-105c-32.5-15.9-64-33.9-90.6-55.4C-3104,289.9-3117.3,278.9-3119.8,268.2
		L-3119.8,268.2z"/>
</g>
<g>
	
		<linearGradient id="SVGID_34_" gradientUnits="userSpaceOnUse" x1="2649.447" y1="5079.5586" x2="3015.0076" y2="4713.9976" gradientTransform="matrix(-0.9877 -0.1562 0.1562 -0.9877 -1741.6071 5459.8608)">
		<stop  offset="0" style="stop-color:#EDDBAC"/>
		<stop  offset="0.5237" style="stop-color:#E0BC5D"/>
		<stop  offset="1" style="stop-color:#BC9557"/>
	</linearGradient>
	<path class="st38" d="M-3561.4,384.6c0,0,42.5-107.7-48.3-192.9c-91.6-85.9-264.4-127.9-290-277.8c0,0-5.5,112.4,90.7,202
		C-3712.9,205.6-3567.8,278.6-3561.4,384.6z"/>
	
		<linearGradient id="SVGID_35_" gradientUnits="userSpaceOnUse" x1="2609.2698" y1="5040.0776" x2="2974.9729" y2="4674.3745" gradientTransform="matrix(-0.9877 -0.1562 0.1562 -0.9877 -1741.6071 5459.8608)">
		<stop  offset="0" style="stop-color:#EDDBAC"/>
		<stop  offset="0.5237" style="stop-color:#E0BC5D"/>
		<stop  offset="1" style="stop-color:#BC9557"/>
	</linearGradient>
	<path class="st39" d="M-3589.2,373.9c0,0,3.8-81.9-132.5-145.9c-122.1-57.3-164.4-65.4-202.2-126.3c0,0,25.6,76,163.3,147.9
		C-3623,321.4-3604.6,338.4-3589.2,373.9z"/>
	
		<linearGradient id="SVGID_36_" gradientUnits="userSpaceOnUse" x1="2578.1116" y1="5008.8535" x2="2943.417" y2="4643.5479" gradientTransform="matrix(-0.9877 -0.1562 0.1562 -0.9877 -1741.6071 5459.8608)">
		<stop  offset="0" style="stop-color:#EDDBAC"/>
		<stop  offset="0.5237" style="stop-color:#E0BC5D"/>
		<stop  offset="1" style="stop-color:#BC9557"/>
	</linearGradient>
	<path class="st40" d="M-3616.5,369.6c0,0-0.9-38.8-141.2-87c-104-35.7-118.1-33.3-147.6-61.3c0,0,23.4,49.9,127.2,85.8
		C-3674.3,343-3635.2,348.5-3616.5,369.6z"/>
	
		<linearGradient id="SVGID_37_" gradientUnits="userSpaceOnUse" x1="2696.8499" y1="5127.6016" x2="3062.7234" y2="4761.728" gradientTransform="matrix(-0.9877 -0.1562 0.1562 -0.9877 -1741.6071 5459.8608)">
		<stop  offset="0" style="stop-color:#EDDBAC"/>
		<stop  offset="0.5237" style="stop-color:#E0BC5D"/>
		<stop  offset="1" style="stop-color:#BC9557"/>
	</linearGradient>
	<path class="st41" d="M-3690.6,229.1c0,0-196.9-126.8-221.6-223.4c0,0,5.9,97.9,91,153.9C-3774.5,190.3-3690.6,229.1-3690.6,229.1z
		"/>
	
		<linearGradient id="SVGID_38_" gradientUnits="userSpaceOnUse" x1="2666.2332" y1="5097.123" x2="3031.7766" y2="4731.5796" gradientTransform="matrix(-0.9877 -0.1562 0.1562 -0.9877 -1741.6071 5459.8608)">
		<stop  offset="0" style="stop-color:#EDDBAC"/>
		<stop  offset="0.5237" style="stop-color:#E0BC5D"/>
		<stop  offset="1" style="stop-color:#BC9557"/>
	</linearGradient>
	<path class="st42" d="M-3763.3,266.2c4.5,0.7-98.8-38-166.9-125.1C-3930.2,141.1-3908.7,242.8-3763.3,266.2z"/>
</g>
<g>
	<g class="st43">
		<path class="st44" d="M-1697.7,1823.9c0,34.9-36.4,64.9-109.2,89.8c-72.8,25-160.7,37.4-263.8,37.4
			c-102.1,0-189.8-12.5-263.1-37.4s-109.9-54.9-109.9-89.8v-630.8c0-34.9,36.6-64.8,109.9-89.8s161-37.5,263.1-37.5
			c103.1,0,191,12.5,263.8,37.5c72.8,25,109.2,54.9,109.2,89.8V1823.9z M-2278.4,1907.9c-27.3-15.8-40.9-35.9-40.9-60.3v-678.3
			c0-23.9,13.6-43.8,40.9-59.7c-68.7,18.7-103.1,43.6-103.1,74.9V1833C-2381.5,1863.9-2347.1,1888.8-2278.4,1907.9z M-1946.4,1878.7
			v-740.4c0-13.8-12.1-25.6-36.4-35.3c-24.2-9.7-53.6-14.6-87.9-14.6c-34.4,0-63.7,4.9-87.9,14.6c-24.3,9.8-36.4,21.5-36.4,35.3
			v740.4c0,13.8,12.1,25.6,36.4,35.3c24.2,9.8,53.6,14.6,87.9,14.6c34.4,0,63.7-4.9,87.9-14.6S-1946.4,1892.5-1946.4,1878.7z
			 M-1822,1844v-671c0-33.3-37.4-59.5-112.2-78.5c33.3,15.4,50,35.9,50,61.5v705.7c0,25.2-16.7,45.5-50,60.9
			C-1859.4,1903.5-1822,1877.3-1822,1844z"/>
	</g>
	<text transform="matrix(-2.102611e-03 2.0205 -1 -1.040444e-03 -2131.5786 1126.1602)" class="st1 st2"> rigins</text>
	
		<linearGradient id="SVGID_39_" gradientUnits="userSpaceOnUse" x1="-2042.5706" y1="3849.2825" x2="-1682.4951" y2="3489.2073" gradientTransform="matrix(1 0 0 -1 0 5596.8213)">
		<stop  offset="0" style="stop-color:#EDDBAC"/>
		<stop  offset="0.5237" style="stop-color:#E0BC5D"/>
		<stop  offset="1" style="stop-color:#BC9557"/>
	</linearGradient>
	<path class="st45" d="M-1676.4,1892c0,0-61,68.8-215.2,95c0,0-85.7,14.3-109.5,23.7c-1.3,0.5,6.7-22.8,41.7-33.8
		S-1730.7,1941.3-1676.4,1892z"/>
	<g>
		
			<linearGradient id="SVGID_40_" gradientUnits="userSpaceOnUse" x1="1509.9658" y1="4201.1602" x2="1858.9293" y2="3852.1965" gradientTransform="matrix(-0.9754 -0.2205 0.2205 -0.9754 -1776.2705 5398.5854)">
			<stop  offset="0" style="stop-color:#EDDBAC"/>
			<stop  offset="0.5237" style="stop-color:#E0BC5D"/>
			<stop  offset="1" style="stop-color:#BC9557"/>
		</linearGradient>
		<path class="st46" d="M-2572.4,885.3c30.5,14.8,113.8,66.1,113.2,151.6c-0.4,54.2,35,90.6,61,110c-3.1,9.4-6.2,19-9,28.7
			c-36.1-30-51.9-61.1-51.9-61.1c5.7,36,29.1,64.9,46.3,81.9c-5.9,24.4-9.7,49.2-8.9,74c-52.7-88.4-58.8-194.3-60.9-254.3
			C-2485.4,934.9-2572.4,885.3-2572.4,885.3z"/>
		
			<linearGradient id="SVGID_41_" gradientUnits="userSpaceOnUse" x1="1661.7886" y1="4416.457" x2="2122.6001" y2="3955.6455" gradientTransform="matrix(-0.9754 -0.2205 0.2205 -0.9754 -1776.2705 5398.5854)">
			<stop  offset="0" style="stop-color:#EDDBAC"/>
			<stop  offset="0.5237" style="stop-color:#E0BC5D"/>
			<stop  offset="1" style="stop-color:#BC9557"/>
		</linearGradient>
		<path class="st47" d="M-2591.2,889.9c49.3,24,79.7,75.5,82.7,80.8c-1.9-3.2-15.8-22-84.1-50c-184-75.3-198.3-156.9-198.3-156.9
			C-2767.6,799.4-2667.5,852.8-2591.2,889.9z"/>
		
			<linearGradient id="SVGID_42_" gradientUnits="userSpaceOnUse" x1="1633.8312" y1="4213.7222" x2="1781.713" y2="4065.8401" gradientTransform="matrix(-0.9754 -0.2205 0.2205 -0.9754 -1776.2705 5398.5854)">
			<stop  offset="0" style="stop-color:#EDDBAC"/>
			<stop  offset="0.5237" style="stop-color:#E0BC5D"/>
			<stop  offset="1" style="stop-color:#BC9557"/>
		</linearGradient>
		<path class="st48" d="M-2508.5,970.7c0.2,0.3,0.3,0.5,0.3,0.5S-2508.3,971-2508.5,970.7z"/>
		
			<linearGradient id="SVGID_43_" gradientUnits="userSpaceOnUse" x1="1631.636" y1="4379.1768" x2="2075.5566" y2="3935.2561" gradientTransform="matrix(-0.9754 -0.2205 0.2205 -0.9754 -1776.2705 5398.5854)">
			<stop  offset="0" style="stop-color:#EDDBAC"/>
			<stop  offset="0.5237" style="stop-color:#E0BC5D"/>
			<stop  offset="1" style="stop-color:#BC9557"/>
		</linearGradient>
		<path class="st49" d="M-2792.4,828.5c71.3,68.5,223.5,113.9,278.1,147.9c17,10.6,20.2,34.4,20.2,34.4s-20.6-15.8-95.1-34.9
			C-2766.2,930.6-2797,824.1-2792.4,828.5z"/>
		
			<linearGradient id="SVGID_44_" gradientUnits="userSpaceOnUse" x1="1597.7244" y1="4344.4854" x2="2031.2509" y2="3910.9587" gradientTransform="matrix(-0.9754 -0.2205 0.2205 -0.9754 -1776.2705 5398.5854)">
			<stop  offset="0" style="stop-color:#EDDBAC"/>
			<stop  offset="0.5237" style="stop-color:#E0BC5D"/>
			<stop  offset="1" style="stop-color:#BC9557"/>
		</linearGradient>
		<path class="st50" d="M-2520.5,1016.2c26,11.7,27.1,35.2,27.1,35.2c-16.8-17.6-52.8-13.3-99.4-15.5
			c-164.8-7.8-191.8-139-191.8-139C-2647.5,1024.9-2570.8,993.5-2520.5,1016.2z"/>
		
			<linearGradient id="SVGID_45_" gradientUnits="userSpaceOnUse" x1="1545.0208" y1="4298.3276" x2="1977.7858" y2="3865.5625" gradientTransform="matrix(-0.9754 -0.2205 0.2205 -0.9754 -1776.2705 5398.5854)">
			<stop  offset="0" style="stop-color:#EDDBAC"/>
			<stop  offset="0.5237" style="stop-color:#E0BC5D"/>
			<stop  offset="1" style="stop-color:#BC9557"/>
		</linearGradient>
		<path class="st51" d="M-2556.8,1061.2c60.1-1.8,67.4,46.2,67.4,46.2c-27.2-17.3-76-17.8-107.2-19.3
			c-132-6.2-167.6-97.2-167.6-97.2C-2725.7,1038.3-2644.6,1063.8-2556.8,1061.2z"/>
		
			<linearGradient id="SVGID_46_" gradientUnits="userSpaceOnUse" x1="1473.5248" y1="4231.8145" x2="1904.2117" y2="3801.1274" gradientTransform="matrix(-0.9754 -0.2205 0.2205 -0.9754 -1776.2705 5398.5854)">
			<stop  offset="0" style="stop-color:#EDDBAC"/>
			<stop  offset="0.5237" style="stop-color:#E0BC5D"/>
			<stop  offset="1" style="stop-color:#BC9557"/>
		</linearGradient>
		<path class="st52" d="M-2518.8,1119.3c33.1,10.4,40.4,45.8,39,44.4c-4.6-4.4-18.9-21.4-72.2-25.7c-92.1-7.4-109.3-43.8-109.3-43.8
			C-2616.4,1119.3-2563.5,1105.3-2518.8,1119.3z"/>
		
			<linearGradient id="SVGID_47_" gradientUnits="userSpaceOnUse" x1="1424.0308" y1="4193.6421" x2="1859.6848" y2="3757.988" gradientTransform="matrix(-0.9754 -0.2205 0.2205 -0.9754 -1776.2705 5398.5854)">
			<stop  offset="0" style="stop-color:#EDDBAC"/>
			<stop  offset="0.5237" style="stop-color:#E0BC5D"/>
			<stop  offset="1" style="stop-color:#BC9557"/>
		</linearGradient>
		<path class="st53" d="M-2529.6,1161.1c54.8,7.8,67.3,64.1,67.3,64.1c-18.5-25.3-42.8-22.2-80.6-32.9c-60.1-17-74.4-51.6-74.4-51.6
			C-2601.1,1148.5-2576.6,1154.4-2529.6,1161.1z"/>
	</g>
</g>
<g>
	
		<linearGradient id="SVGID_48_" gradientUnits="userSpaceOnUse" x1="-3565.4526" y1="5571.085" x2="-3070.3796" y2="5076.0122" gradientTransform="matrix(1 0 0 -1 0 5596.8213)">
		<stop  offset="0" style="stop-color:#EDDBAC"/>
		<stop  offset="0.5237" style="stop-color:#E0BC5D"/>
		<stop  offset="1" style="stop-color:#BC9557"/>
	</linearGradient>
	<path class="st54" d="M-3270.8,23.1c-28.1,8.9-106.9,45.7-122.5,142.7c-9.9,61.4-46,93.5-71.3,108.9c0.8,11.5,1.6,23.1,2.1,34.7
		c35.6-24.7,54.6-55.9,54.6-55.9c-11.5,39.3-36.3,66.1-53.8,80.9c0.4,29.1-1.2,58.2-6.5,86c60.3-86.6,85.3-204.9,98.3-272.2
		C-3352.3,57-3270.8,23.1-3270.8,23.1z"/>
	
		<linearGradient id="SVGID_49_" gradientUnits="userSpaceOnUse" x1="-3334.8018" y1="5706.064" x2="-3010.9077" y2="5382.1699" gradientTransform="matrix(1 0 0 -1 0 5596.8213)">
		<stop  offset="0" style="stop-color:#EDDBAC"/>
		<stop  offset="0.5237" style="stop-color:#E0BC5D"/>
		<stop  offset="1" style="stop-color:#BC9557"/>
	</linearGradient>
	<path class="st55" d="M-3256,33.1c-45.4,14.5-80.3,65.1-83.8,70.3c2.2-3.1,17.3-20.9,79.3-35c166.9-38.1,194.1-126.9,194.1-126.9
		C-3092.5-24.2-3185.6,10.6-3256,33.1z"/>
	
		<linearGradient id="SVGID_50_" gradientUnits="userSpaceOnUse" x1="-3579.5769" y1="5732.7944" x2="-2952.79" y2="5106.0073" gradientTransform="matrix(1 0 0 -1 0 5596.8213)">
		<stop  offset="0" style="stop-color:#EDDBAC"/>
		<stop  offset="0.5237" style="stop-color:#E0BC5D"/>
		<stop  offset="1" style="stop-color:#BC9557"/>
	</linearGradient>
	<path class="st56" d="M-3339.8,103.4c-0.2,0.3-0.3,0.5-0.3,0.5S-3340,103.7-3339.8,103.4z"/>
	
		<linearGradient id="SVGID_51_" gradientUnits="userSpaceOnUse" x1="-3373.9941" y1="5672.4834" x2="-3029.26" y2="5327.749" gradientTransform="matrix(1 0 0 -1 0 5596.8213)">
		<stop  offset="0" style="stop-color:#EDDBAC"/>
		<stop  offset="0.5237" style="stop-color:#E0BC5D"/>
		<stop  offset="1" style="stop-color:#BC9557"/>
	</linearGradient>
	<path class="st57" d="M-3077.4,15.1c-72.1,59.2-207,71.7-258.7,96.3c-16.1,7.6-23.3,33.7-23.3,33.7s20-12.6,85.5-15.2
		C-3118.3,123.9-3072.8,11.3-3077.4,15.1z"/>
	
		<linearGradient id="SVGID_52_" gradientUnits="userSpaceOnUse" x1="-3411.905" y1="5635.8477" x2="-3051.1074" y2="5275.0498" gradientTransform="matrix(1 0 0 -1 0 5596.8213)">
		<stop  offset="0" style="stop-color:#EDDBAC"/>
		<stop  offset="0.5237" style="stop-color:#E0BC5D"/>
		<stop  offset="1" style="stop-color:#BC9557"/>
	</linearGradient>
	<path class="st58" d="M-3338.4,158c-23.8,6.6-29.2,32.9-29.2,32.9c17.3-15.6,46.3-1.6,85.5,7.9c138.3,33.4,185.4-108.2,185.4-108.2
		C-3234.5,200.3-3292.4,145.2-3338.4,158z"/>
	
		<linearGradient id="SVGID_53_" gradientUnits="userSpaceOnUse" x1="-3459.812" y1="5577.8145" x2="-3098.1375" y2="5216.1401" gradientTransform="matrix(1 0 0 -1 0 5596.8213)">
		<stop  offset="0" style="stop-color:#EDDBAC"/>
		<stop  offset="0.5237" style="stop-color:#E0BC5D"/>
		<stop  offset="1" style="stop-color:#BC9557"/>
	</linearGradient>
	<path class="st59" d="M-3316.7,218.2c-49.6-17.4-64.6,35.1-64.6,35.1c25.8-12.6,66.5-0.7,92.6,5.6
		c110.8,26.8,157.4-67.2,157.4-67.2C-3172.1,235.6-3244.2,243.6-3316.7,218.2z"/>
	
		<linearGradient id="SVGID_54_" gradientUnits="userSpaceOnUse" x1="-3524.3726" y1="5504.6528" x2="-3160.5481" y2="5140.8286" gradientTransform="matrix(1 0 0 -1 0 5596.8213)">
		<stop  offset="0" style="stop-color:#EDDBAC"/>
		<stop  offset="0.5237" style="stop-color:#E0BC5D"/>
		<stop  offset="1" style="stop-color:#BC9557"/>
	</linearGradient>
	<path class="st60" d="M-3359.2,274.3c-29.4,3.3-42.2,41.5-40.8,40.3c4.6-3.8,19.8-19.4,64.8-10.6c77.9,15.1,99-21.6,99-21.6
		C-3278.1,299.2-3319.4,269.8-3359.2,274.3z"/>
	
		<linearGradient id="SVGID_55_" gradientUnits="userSpaceOnUse" x1="-3561.5273" y1="5453.0049" x2="-3202.5366" y2="5094.0142" gradientTransform="matrix(1 0 0 -1 0 5596.8213)">
		<stop  offset="0" style="stop-color:#EDDBAC"/>
		<stop  offset="0.5237" style="stop-color:#E0BC5D"/>
		<stop  offset="1" style="stop-color:#BC9557"/>
	</linearGradient>
	<path class="st61" d="M-3358.1,324.3c-46.9-5.1-68,55.3-68,55.3c20.1-23.9,39.7-14.2,73.1-16.7c53.1-3.9,71.5-39.4,71.5-39.4
		C-3296.3,328.3-3317.7,328.7-3358.1,324.3z"/>
</g>
<g>
	
		<linearGradient id="SVGID_56_" gradientUnits="userSpaceOnUse" x1="-3014.6743" y1="5763.5664" x2="-2665.7107" y2="5414.603" gradientTransform="matrix(0.9531 -0.3027 -0.3027 -0.9531 975.2924 5341.3647)">
		<stop  offset="0" style="stop-color:#EDDBAC"/>
		<stop  offset="0.5237" style="stop-color:#E0BC5D"/>
		<stop  offset="1" style="stop-color:#BC9557"/>
	</linearGradient>
	<path class="st62" d="M-3401.3,657.2c-29.1,17.3-107.8,75.5-99.9,160.7c5,53.9-27.1,93.2-51.4,114.8c3.9,9.1,7.8,18.4,11.4,27.8
		c33.4-33,46.5-65.3,46.5-65.3c-2.6,36.4-23.4,67.2-39.2,85.6c8,23.8,13.9,48.2,15.2,72.9c45-92.6,42-198.6,39-258.6
		C-3483.7,714-3401.3,657.2-3401.3,657.2z"/>
	
		<linearGradient id="SVGID_57_" gradientUnits="userSpaceOnUse" x1="-2862.8547" y1="5978.8599" x2="-2402.0432" y2="5518.0483" gradientTransform="matrix(0.9531 -0.3027 -0.3027 -0.9531 975.2924 5341.3647)">
		<stop  offset="0" style="stop-color:#EDDBAC"/>
		<stop  offset="0.5237" style="stop-color:#E0BC5D"/>
		<stop  offset="1" style="stop-color:#BC9557"/>
	</linearGradient>
	<path class="st63" d="M-3382.1,660.2c-47.1,28.1-72.9,82-75.5,87.5c1.7-3.3,13.9-23.3,79.6-57c176.9-90.7,184.2-173.2,184.2-173.2
		C-3214,555-3309.2,616.7-3382.1,660.2z"/>
	
		<linearGradient id="SVGID_58_" gradientUnits="userSpaceOnUse" x1="-2890.8149" y1="5776.1226" x2="-2742.9331" y2="5628.2407" gradientTransform="matrix(0.9531 -0.3027 -0.3027 -0.9531 975.2924 5341.3647)">
		<stop  offset="0" style="stop-color:#EDDBAC"/>
		<stop  offset="0.5237" style="stop-color:#E0BC5D"/>
		<stop  offset="1" style="stop-color:#BC9557"/>
	</linearGradient>
	<path class="st64" d="M-3457.6,747.7c-0.2,0.3-0.2,0.5-0.2,0.5S-3457.7,748-3457.6,747.7z"/>
	
		<linearGradient id="SVGID_59_" gradientUnits="userSpaceOnUse" x1="-2893.0161" y1="5941.5713" x2="-2449.0955" y2="5497.6504" gradientTransform="matrix(0.9531 -0.3027 -0.3027 -0.9531 975.2924 5341.3647)">
		<stop  offset="0" style="stop-color:#EDDBAC"/>
		<stop  offset="0.5237" style="stop-color:#E0BC5D"/>
		<stop  offset="1" style="stop-color:#BC9557"/>
	</linearGradient>
	<path class="st65" d="M-3186.9,581.9c-65.3,74.3-213,132.5-264.5,171.1c-16,12-17.2,36-17.2,36s19.1-17.5,91.7-42.8
		C-3204.3,685.8-3182.7,577.1-3186.9,581.9z"/>
	
		<linearGradient id="SVGID_60_" gradientUnits="userSpaceOnUse" x1="-2926.9172" y1="5906.8901" x2="-2493.3909" y2="5473.3638" gradientTransform="matrix(0.9531 -0.3027 -0.3027 -0.9531 975.2924 5341.3647)">
		<stop  offset="0" style="stop-color:#EDDBAC"/>
		<stop  offset="0.5237" style="stop-color:#E0BC5D"/>
		<stop  offset="1" style="stop-color:#BC9557"/>
	</linearGradient>
	<path class="st66" d="M-3441.8,792c-24.9,13.9-24.1,37.4-24.1,37.4c15.3-19,51.5-17.7,97.7-23.9
		c163.6-21.8,179.3-154.8,179.3-154.8C-3314.5,789.9-3393.6,765.1-3441.8,792z"/>
	
		<linearGradient id="SVGID_61_" gradientUnits="userSpaceOnUse" x1="-2979.6233" y1="5860.73" x2="-2546.8582" y2="5427.9653" gradientTransform="matrix(0.9531 -0.3027 -0.3027 -0.9531 975.2924 5341.3647)">
		<stop  offset="0" style="stop-color:#EDDBAC"/>
		<stop  offset="0.5237" style="stop-color:#E0BC5D"/>
		<stop  offset="1" style="stop-color:#BC9557"/>
	</linearGradient>
	<path class="st67" d="M-3401.8,833.8c-60,3.4-63.2,51.8-63.2,51.8c25.6-19.5,74.2-24.2,105.2-28.3
		c131-17.4,158.7-111.1,158.7-111.1C-3235.4,796.6-3314,828.9-3401.8,833.8z"/>
	
		<linearGradient id="SVGID_62_" gradientUnits="userSpaceOnUse" x1="-3051.1174" y1="5794.2188" x2="-2620.4307" y2="5363.5317" gradientTransform="matrix(0.9531 -0.3027 -0.3027 -0.9531 975.2924 5341.3647)">
		<stop  offset="0" style="stop-color:#EDDBAC"/>
		<stop  offset="0.5237" style="stop-color:#E0BC5D"/>
		<stop  offset="1" style="stop-color:#BC9557"/>
	</linearGradient>
	<path class="st68" d="M-3434.7,894.9c-32.1,13.2-36.4,49.1-35.1,47.6c4.2-4.8,17-23,69.8-31.8c91.1-15.3,105.2-52.9,105.2-52.9
		C-3337.4,886.6-3391.4,877.1-3434.7,894.9z"/>
	
		<linearGradient id="SVGID_63_" gradientUnits="userSpaceOnUse" x1="-3100.6099" y1="5756.0483" x2="-2664.9556" y2="5320.394" gradientTransform="matrix(0.9531 -0.3027 -0.3027 -0.9531 975.2924 5341.3647)">
		<stop  offset="0" style="stop-color:#EDDBAC"/>
		<stop  offset="0.5237" style="stop-color:#E0BC5D"/>
		<stop  offset="1" style="stop-color:#BC9557"/>
	</linearGradient>
	<path class="st69" d="M-3420.4,935.7c-53.9,12.5-61.6,69.6-61.6,69.6c16.3-26.8,40.7-25.8,77.5-39.7c58.4-22.1,69.8-57.7,69.8-57.7
		C-3350.2,917-3374.1,924.9-3420.4,935.7z"/>
</g>
</svg>
